<svg width="80" height="95" viewBox="0 0 80 95" fill="none" xmlns="http://www.w3.org/2000/svg">
<path d="M34.6925 27.1306H24.3112V2.90759H17.3903V27.1306H7.009V2.90759H0.0881348V29.726C0.0881348 39.5677 7.58322 47.762 17.3903 49.3456V94.6091H24.3112V49.3456C34.1183 47.762 41.6134 39.5677 41.6134 29.726V2.90759H34.6925V27.1306ZM20.8507 42.7026C14.8359 42.7026 9.70728 39.086 7.80274 34.0515H33.8987C31.9942 39.086 26.8656 42.7026 20.8507 42.7026Z" fill="black"/>
<path d="M75.6916 1.21773C68.6121 2.30681 62.1562 5.89407 57.4923 11.3304C52.8284 16.7667 50.2645 23.6929 50.2645 30.8557V66.9255H72.7574V94.609H79.6782V0.60437L75.6916 1.21773ZM72.7574 60.0047H57.1854V30.8557C57.1617 26.0438 58.653 21.3464 61.4479 17.4293C64.2427 13.5122 68.1995 10.5739 72.7574 9.03096V60.0047Z" fill="black"/>
</svg>
