<svg width="94" height="94" viewBox="0 0 94 94" fill="none" xmlns="http://www.w3.org/2000/svg">
<path d="M76.3751 53.1572L47.0001 82.2502L17.6251 53.1572M17.6251 53.1572C15.6876 51.2717 14.1614 49.0056 13.1427 46.5013C12.124 43.9971 11.6348 41.3091 11.706 38.6065C11.7772 35.9039 12.4072 33.2454 13.5563 30.7982C14.7054 28.3511 16.3488 26.1684 18.3829 24.3876C20.4171 22.6068 22.7979 21.2664 25.3755 20.451C27.953 19.6355 30.6716 19.3625 33.3598 19.6493C36.0481 19.9361 38.6478 20.7763 40.9954 22.1172C43.3429 23.4581 45.3874 25.2705 47.0001 27.4403C48.6198 25.2863 50.6667 23.4897 53.0126 22.163C55.3585 20.8364 57.9531 20.0083 60.6338 19.7305C63.3145 19.4526 66.0237 19.7311 68.5918 20.5485C71.1599 21.3659 73.5317 22.7046 75.5587 24.4808C77.5857 26.2569 79.2242 28.4324 80.3718 30.8709C81.5193 33.3095 82.1512 35.9586 82.2278 38.6526C82.3045 41.3466 81.8242 44.0274 80.8171 46.5272C79.8101 49.0271 78.2978 51.2921 76.3751 53.1807" stroke="black" stroke-width="9.26231" stroke-linecap="round" stroke-linejoin="round"/>
</svg>
