<svg width="20" height="20" viewBox="0 0 20 20" fill="none" xmlns="http://www.w3.org/2000/svg">
<g clip-path="url(#clip0_4_9)">
<path d="M12.7583 7.24183C15.0921 9.57812 15.0601 13.3238 12.7723 15.6243C12.768 15.6289 12.763 15.634 12.7583 15.6387L10.1333 18.2637C7.81804 20.5789 4.05128 20.5786 1.7364 18.2637C-0.578839 15.9489 -0.578839 12.1817 1.7364 9.86683L3.18585 8.41738C3.57022 8.033 4.23218 8.28847 4.25202 8.83167C4.27733 9.52394 4.40147 10.2194 4.63054 10.8911C4.70811 11.1185 4.65269 11.3701 4.48276 11.54L3.97155 12.0512C2.87679 13.146 2.84245 14.9285 3.92643 16.034C5.02112 17.1504 6.82042 17.157 7.92351 16.0539L10.5485 13.4293C11.6497 12.3281 11.6451 10.5482 10.5485 9.4516C10.4039 9.3073 10.2583 9.19519 10.1446 9.11687C10.0641 9.06161 9.99764 8.98831 9.95053 8.90281C9.90341 8.81732 9.87693 8.72199 9.87319 8.62445C9.85772 8.21167 10.004 7.78632 10.3301 7.46015L11.1526 6.63769C11.3682 6.42203 11.7066 6.39554 11.9566 6.57007C12.243 6.77005 12.5113 6.99484 12.7583 7.24183V7.24183ZM18.2635 1.73628C15.9487 -0.578638 12.1819 -0.578951 9.86667 1.73628L7.24167 4.36128C7.23698 4.36597 7.2319 4.37105 7.22761 4.37574C4.93987 6.67621 4.9078 10.4219 7.24167 12.7582C7.48865 13.0051 7.75689 13.2299 8.04327 13.4299C8.29335 13.6044 8.63171 13.5779 8.84733 13.3623L9.66976 12.5398C9.99593 12.2136 10.1422 11.7883 10.1267 11.3755C10.123 11.278 10.0965 11.1826 10.0494 11.0971C10.0023 11.0116 9.93581 10.9383 9.85534 10.8831C9.74159 10.8048 9.59597 10.6927 9.4514 10.5484C8.35479 9.45175 8.35019 7.67183 9.4514 6.57062L12.0764 3.94601C13.1795 2.84292 14.9787 2.84956 16.0735 3.96593C17.1575 5.0714 17.1232 6.85398 16.0283 7.94875L15.5171 8.45996C15.3472 8.62988 15.2918 8.88144 15.3694 9.10886C15.5984 9.7805 15.7226 10.476 15.7479 11.1683C15.7678 11.7115 16.4297 11.9669 16.8141 11.5826L18.2635 10.1331C20.5788 7.81831 20.5788 4.05113 18.2635 1.73628V1.73628Z" fill="black"/>
</g>
<defs>
<clipPath id="clip0_4_9">
<rect width="20" height="20" fill="white"/>
</clipPath>
</defs>
</svg>
