<svg width="20" height="20" viewBox="0 0 20 20" fill="none" xmlns="http://www.w3.org/2000/svg">
<path d="M2.41289 15.6641L3.09648 14.877C3.23253 14.7252 3.30364 14.5262 3.29453 14.3227V14.1934C3.29453 13.9063 3.14453 13.75 2.85156 13.75H0.625C0.54212 13.75 0.462634 13.7829 0.404029 13.8415C0.345424 13.9001 0.3125 13.9796 0.3125 14.0625V14.6875C0.3125 14.7704 0.345424 14.8499 0.404029 14.9085C0.462634 14.9671 0.54212 15 0.625 15H1.5168C1.36526 15.1527 1.22183 15.3132 1.08711 15.4809L0.867969 15.7543C0.711719 15.9523 0.662891 16.15 0.758594 16.3355L0.799609 16.4109C0.916797 16.6359 1.04531 16.7188 1.27813 16.7188H1.46289C1.86641 16.7188 2.08555 16.8141 2.08555 17.0738C2.08555 17.2582 1.92148 17.3949 1.52461 17.3949C1.31724 17.3933 1.11211 17.3519 0.920312 17.273C0.666797 17.1215 0.461719 17.1363 0.310938 17.3949L0.0925781 17.7586C-0.0527344 17.998 -0.0320313 18.2164 0.195312 18.3812C0.496484 18.5645 0.991406 18.75 1.64062 18.75C2.975 18.75 3.53516 17.8613 3.53516 17.0266C3.53398 16.4648 3.17891 15.8641 2.41289 15.6641V15.6641ZM19.375 8.75H6.875C6.70924 8.75 6.55027 8.81585 6.43306 8.93306C6.31585 9.05027 6.25 9.20924 6.25 9.375V10.625C6.25 10.7908 6.31585 10.9497 6.43306 11.0669C6.55027 11.1842 6.70924 11.25 6.875 11.25H19.375C19.5408 11.25 19.6997 11.1842 19.8169 11.0669C19.9342 10.9497 20 10.7908 20 10.625V9.375C20 9.20924 19.9342 9.05027 19.8169 8.93306C19.6997 8.81585 19.5408 8.75 19.375 8.75ZM19.375 2.5H6.875C6.70924 2.5 6.55027 2.56585 6.43306 2.68306C6.31585 2.80027 6.25 2.95924 6.25 3.125V4.375C6.25 4.54076 6.31585 4.69973 6.43306 4.81694C6.55027 4.93415 6.70924 5 6.875 5H19.375C19.5408 5 19.6997 4.93415 19.8169 4.81694C19.9342 4.69973 20 4.54076 20 4.375V3.125C20 2.95924 19.9342 2.80027 19.8169 2.68306C19.6997 2.56585 19.5408 2.5 19.375 2.5V2.5ZM19.375 15H6.875C6.70924 15 6.55027 15.0658 6.43306 15.1831C6.31585 15.3003 6.25 15.4592 6.25 15.625V16.875C6.25 17.0408 6.31585 17.1997 6.43306 17.3169C6.55027 17.4342 6.70924 17.5 6.875 17.5H19.375C19.5408 17.5 19.6997 17.4342 19.8169 17.3169C19.9342 17.1997 20 17.0408 20 16.875V15.625C20 15.4592 19.9342 15.3003 19.8169 15.1831C19.6997 15.0658 19.5408 15 19.375 15ZM0.625 6.25H3.125C3.20788 6.25 3.28737 6.21708 3.34597 6.15847C3.40458 6.09987 3.4375 6.02038 3.4375 5.9375V5.3125C3.4375 5.22962 3.40458 5.15013 3.34597 5.09153C3.28737 5.03292 3.20788 5 3.125 5H2.5V1.5625C2.5 1.47962 2.46708 1.40013 2.40847 1.34153C2.34987 1.28292 2.27038 1.25 2.1875 1.25H1.25C1.19208 1.2501 1.13532 1.2663 1.08607 1.29679C1.03682 1.32728 0.997014 1.37086 0.971094 1.42266L0.658594 2.04766C0.634774 2.09526 0.623508 2.14816 0.625864 2.20133C0.62822 2.25451 0.64412 2.3062 0.672056 2.35151C0.699993 2.39682 0.739039 2.43424 0.785494 2.46023C0.831949 2.48622 0.884271 2.49991 0.9375 2.5H1.25V5H0.625C0.54212 5 0.462634 5.03292 0.404029 5.09153C0.345424 5.15013 0.3125 5.22962 0.3125 5.3125V5.9375C0.3125 6.02038 0.345424 6.09987 0.404029 6.15847C0.462634 6.21708 0.54212 6.25 0.625 6.25ZM0.472266 12.5H3.125C3.20788 12.5 3.28737 12.4671 3.34597 12.4085C3.40458 12.3499 3.4375 12.2704 3.4375 12.1875V11.5625C3.4375 11.4796 3.40458 11.4001 3.34597 11.3415C3.28737 11.2829 3.20788 11.25 3.125 11.25H1.61406C1.74258 10.848 3.50234 10.5203 3.50234 9.04531C3.50234 7.91016 2.52578 7.5 1.76523 7.5C0.930859 7.5 0.444922 7.89062 0.184766 8.23242C0.0140625 8.45078 0.0675781 8.65586 0.294141 8.83281L0.629297 9.10156C0.848438 9.27969 1.05898 9.19805 1.25898 9.00625C1.35764 8.90959 1.4904 8.8557 1.62852 8.85625C1.75859 8.85625 1.99102 8.91719 1.99102 9.19805C1.99219 9.69492 0 10.0512 0 11.898V12.0543C0 12.3437 0.198437 12.5 0.472266 12.5Z" fill="black"/>
</svg>
