<svg width="94" height="94" viewBox="0 0 94 94" fill="none" xmlns="http://www.w3.org/2000/svg">
<path d="M58.7501 15.6667L82.2501 23.5001V43.0834H70.5001V74.4167C70.5001 75.4555 70.0875 76.4517 69.353 77.1863C68.6184 77.9208 67.6222 78.3334 66.5835 78.3334H27.4168C26.378 78.3334 25.3818 77.9208 24.6473 77.1863C23.9128 76.4517 23.5001 75.4555 23.5001 74.4167V43.0834H11.7501V23.5001L35.2501 15.6667C35.2501 18.783 36.4881 21.7717 38.6916 23.9753C40.8952 26.1788 43.8838 27.4167 47.0001 27.4167C50.1164 27.4167 53.1051 26.1788 55.3086 23.9753C57.5122 21.7717 58.7501 18.783 58.7501 15.6667Z" stroke="black" stroke-width="9.26231" stroke-linecap="round" stroke-linejoin="round"/>
</svg>
