<svg width="64" height="64" viewBox="0 0 64 64" fill="none" xmlns="http://www.w3.org/2000/svg">
<g clip-path="url(#clip0_106_23)">
<path d="M62.8987 16.4984L62.898 16.498L43.7967 7.03077C41.5601 9.79713 37.0818 11.62 32 11.62C26.9183 11.62 22.44 9.79713 20.2034 7.03077L1.1059 16.4961C1.10531 16.4964 1.10472 16.4967 1.10413 16.497C0.559567 16.7739 0.340702 17.4351 0.607895 17.9777C0.608058 17.978 0.608221 17.9784 0.608385 17.9787L6.32612 29.4242C6.3263 29.4245 6.32647 29.4249 6.32665 29.4252C6.60352 29.9706 7.2657 30.1898 7.80871 29.9217L7.81025 29.9209L13.4698 27.1511L62.8987 16.4984ZM62.8987 16.4984C63.4369 16.764 63.6596 17.4298 63.384 17.9742L63.383 17.9761L57.653 29.4161L57.6528 29.4164C57.3753 29.9715 56.7157 30.1873 56.1759 29.9139L56.1759 29.9139M62.8987 16.4984L56.1759 29.9139M56.1759 29.9139L56.1698 29.9109M56.1759 29.9139L56.1698 29.9109M56.1698 29.9109L50.5103 27.1411L56.1698 29.9109ZM16.49 29.04C16.49 27.4811 14.8632 26.468 13.4703 27.1509L50.5098 27.1409C49.1146 26.4568 47.49 27.4836 47.49 29.03V54.4C47.49 55.8939 46.2839 57.1 44.79 57.1H19.19C17.6962 57.1 16.49 55.8939 16.49 54.4V29.04Z" stroke="black"/>
</g>
<defs>
<clipPath id="clip0_106_23">
<rect width="64" height="64" fill="white"/>
</clipPath>
</defs>
</svg>
